<?xml version="1.0" encoding="UTF-8"?>
<svg id="Layer_1" xmlns="http://www.w3.org/2000/svg" version="1.1" viewBox="0 0 407.7 421.41">
  <!-- Generator: Adobe Illustrator 29.8.3, SVG Export Plug-In . SVG Version: 2.1.1 Build 3)  -->
  <defs>
    <style>
      .st0 {
        fill: #f26e21;
      }
    </style>
  </defs>
  <path class="st0" d="M22.5,348.27c-.4,3-.9,6-1.3,9-2.96,20.08-8.06,39.8-15.2,58.8-.61,1.58-1.38,3.09-2.3,4.5-.41.58-1.1.88-1.8.8-.6-.1-1-1-1.9-2,2.7.3,3.1-1.2,3.5-2.6,5.5-16.7,10.6-33.5,13.7-50.9,1.2-6.8,2.1-13.6,3.2-20.4.2-1.43,0-2.89-.6-4.2-7.44-16.28-13.01-33.36-16.6-50.9-2.2-10.7-3.6-21.4-3.1-32.4.08-1.9.42-3.79,1-5.6,1-3.1,3.7-3.9,6.2-1.8,1.64,1.53,3.05,3.28,4.2,5.2,3.1,4.9,5,10.3,6.7,15.9,2.7,9.31,4.51,18.85,5.4,28.5.8,8.04,1.1,16.12.9,24.2-.1,4.6-.5,9.3-.9,13.9-.13,1.58.14,3.16.8,4.6,3.99,8.72,8.67,17.12,14,25.1,2.85,4.35,6.17,8.37,9.9,12,2.53,2.55,5.43,4.71,8.6,6.4,4.6,2.41,10.05,2.59,14.8.5,3.31-1.41,6.35-3.37,9-5.8,4.48-4.11,8.41-8.78,11.7-13.9,8.02-12.35,14.06-25.88,17.9-40.1,1.2-4.1,2-8.2,3.1-12.3.22-.85.08-1.76-.4-2.5-9.7-15.7-15.8-33-20.9-50.6-4.79-17.08-8.5-34.45-11.1-52-1.9-12.7-3.5-25.5-5.1-38.3-1.05-8.09-1.45-16.25-1.2-24.4.13-2.39.46-4.77,1-7.1.26-1.08.74-2.1,1.4-3,1.12-1.9,3.47-2.67,5.5-1.8,1.78.69,3.41,1.7,4.8,3,2.22,2.28,4.23,4.76,6,7.4,5.5,8.1,9.4,17.1,12.9,26.2,5.99,16.2,10.21,33,12.6,50.1,2.63,17.81,3.67,35.81,3.1,53.8-.4,11.85-1.71,23.65-3.9,35.3-.32,1.01-.17,2.11.4,3,3.6,5.3,7.6,10.3,12.7,14.2,1.63,1.28,3.37,2.42,5.2,3.4,6.33,3.57,14.03,3.73,20.5.4,4.51-2.28,8.52-5.45,11.8-9.3,3.95-4.53,7.37-9.5,10.2-14.8,6.7-12.2,11.2-25.3,14.7-38.7,5.83-22.48,8.98-45.58,9.4-68.8-.02-1.18-.29-2.34-.8-3.4-15-27.9-24.9-57.6-32.1-88.3-1.75-7.23-2.95-14.59-3.6-22-.42-3.98-.18-8,.7-11.9.32-1.16.79-2.27,1.4-3.3,1.9-3.2,5.1-4.1,8.2-2.1,1.67,1.09,3.16,2.44,4.4,4,1.99,2.69,3.76,5.53,5.3,8.5,4.9,9.6,8.2,19.8,11,30.1,4.97,18.81,8.05,38.08,9.2,57.5.5,8.6.6,17.3.9,25.9-.02,1.04.22,2.07.7,3,4.9,8.6,10.5,16.9,17.6,23.8,5,4.9,10.5,8.9,17.1,11.2,4.54,1.65,9.42,2.16,14.2,1.5,5.58-.89,10.71-3.6,14.6-7.7,3.53-3.61,6.49-7.72,8.8-12.2,4.72-9.18,8.25-18.93,10.5-29,4.06-17.56,6.34-35.48,6.8-53.5.1-3.1.1-6.2.2-9.4.04-1.12-.44-2.19-1.3-2.9-19.4-19-31.3-42-36.2-68.7-2.1-11.7-2.5-23.5-.1-35.3.66-3.12,1.63-6.17,2.9-9.1.76-1.76,1.84-3.35,3.2-4.7,2.3-2.58,6.19-3.01,9-1,1.94,1.26,3.6,2.89,4.9,4.8,2.26,3.4,4.23,6.98,5.9,10.7,4.3,9.6,6.9,19.8,9.1,30,4.76,22.73,7.24,45.88,7.4,69.1-.07,1.75.71,3.43,2.1,4.5,9.8,8.2,21.2,12.9,33.7,15.3,9.94,1.73,20.01,2.67,30.1,2.8,7.2.2,14.4.2,21.6,0,3.75-.13,7.49-.47,11.2-1,2.36-.13,4.56-1.22,6.1-3,.14,1.32-.59,2.57-1.8,3.1-1.75.95-3.59,1.72-5.5,2.3-5.7,1.6-11.7,2-17.6,2.2-12.87.45-25.76.15-38.6-.9-14.6-1.2-28-5.6-39.8-14.6-.48-.33-.98-.63-1.5-.9-.1,1.1-.1,2-.2,2.8-.23,14.55-1.56,29.06-4,43.4-1.93,12.08-5.14,23.91-9.6,35.3-1.9,4.94-4.31,9.67-7.2,14.1-1.95,2.93-4.16,5.67-6.6,8.2-8.9,9.1-19.7,11.7-31.9,8.4-6.25-1.77-12.02-4.91-16.9-9.2-6.83-5.95-12.73-12.9-17.5-20.6l-1.2-1.8c-.1-.1-.3-.1-.6-.3-.2,3.2-.4,6.4-.6,9.5-2,26.2-6.6,51.9-15.9,76.5-2.88,7.81-6.53,15.31-10.9,22.4-3.07,5.28-6.95,10.04-11.5,14.1-2.5,2.24-5.25,4.19-8.2,5.8-8.9,4.9-17.9,4.6-26.7-.4-5.49-3.3-10.31-7.61-14.2-12.7-.8-1-1.6-2-2.6-3.2-.3,1.1-.6,1.9-.8,2.7-3.8,15.6-9.3,30.6-17.7,44.4-3.6,6.05-7.9,11.65-12.8,16.7-3.1,3.16-6.72,5.76-10.7,7.7-6.63,3.4-14.55,3.1-20.9-.8-3.8-2.23-7.24-5.03-10.2-8.3-4.63-4.96-8.69-10.43-12.1-16.3-2.7-4.5-5.1-9.2-7.7-13.8-.4-.7-.7-1.4-1.1-2.1.2,0,.1,0-.1.1ZM114.7,307.17c.3-.7.4-1,.5-1.3,1.47-8.67,2.43-17.42,2.9-26.2.8-16.45.2-32.95-1.8-49.3-1.99-17.31-5.78-34.37-11.3-50.9-3.45-10.65-8.15-20.85-14-30.4-1.56-2.43-3.29-4.74-5.2-6.9-.89-1.02-1.94-1.9-3.1-2.6-1.4-.9-2.1-.7-2.6.9-.5,1.52-.8,3.1-.9,4.7-.8,9.5,0,19,1.2,28.5,1.6,13.5,3.5,27,5.6,40.4,2.63,17.31,6.48,34.42,11.5,51.2,4.1,13.7,9,27,15.8,39.6.3.5.7,1.2,1.4,2.3ZM298,113.46c.08-.8.11-1.6.1-2.4-.48-22.07-3.12-44.04-7.9-65.6-2.1-9.5-4.7-18.9-8.8-27.8-1.47-3.01-3.14-5.91-5-8.7-.79-1.19-1.81-2.21-3-3-.85-.83-2.21-.82-3.04.02-.05.06-.11.11-.16.18-.62.61-1.13,1.32-1.5,2.1-.96,2.09-1.73,4.27-2.3,6.5-2.16,9.79-2.54,19.88-1.1,29.8,3.03,24.77,13.65,48,30.4,66.5.71.85,1.48,1.65,2.3,2.4ZM202.8,187.86c.1,0,.3-.1.4-.1,0-.3.1-.6.1-.9-.34-24.56-3.56-48.99-9.6-72.8-2.44-10.1-5.93-19.92-10.4-29.3-1.54-2.98-3.28-5.85-5.2-8.6-.92-1.21-2.04-2.25-3.3-3.1-.57-.56-1.49-.55-2.05.02-.16.16-.28.36-.35.58-.61,1.23-1.01,2.54-1.2,3.9-.9,5.5-.1,11,.7,16.5,1.89,11.53,4.52,22.92,7.9,34.1,5.7,19.7,12.5,38.9,21.6,57.4.57.7,1.04,1.47,1.4,2.3h0ZM4.3,252.16c-.98,1.62-1.47,3.5-1.4,5.4-.13,6.15.24,12.31,1.1,18.4,2.7,20,8.6,39.1,16.3,57.7.2.5.6,1,1.1,1.9.2-2.6.4-4.5.5-6.5.69-13.18-.08-26.39-2.3-39.4-1.6-9.2-3.7-18.3-7.7-26.9-1.28-2.65-2.71-5.22-4.3-7.7-.6-1.42-1.82-2.48-3.3-2.9Z"/>
</svg>